<svg width="738" height="762" viewBox="0 0 738 762" fill="none" xmlns="http://www.w3.org/2000/svg">
<g clip-path="url(#clip0_60_28)">
<path d="M282.519 121.251C301.841 121.251 317.505 105.988 317.505 87.1603C317.505 68.3325 301.841 53.0695 282.519 53.0695C263.197 53.0695 247.533 68.3325 247.533 87.1603C247.533 105.988 263.197 121.251 282.519 121.251Z" fill="#BA1A3F"/>
<path d="M360.82 71.0178C359.833 67.8653 357.922 65.0628 355.322 62.9554C352.721 60.8479 349.545 59.5274 346.184 59.1565C346.105 59.1501 346.027 59.1501 345.948 59.1565C345.854 59.1278 345.758 59.1065 345.66 59.0927C333.946 57.6116 320.921 61.2121 312.156 69.0515C308.901 71.9158 306.299 75.4127 304.517 79.3168C302.892 77.154 300.75 75.4098 298.277 74.2351C295.805 73.0605 293.076 72.4908 290.326 72.5754C286.78 72.8038 283.393 74.0923 280.626 76.2652C277.859 78.4382 275.847 81.3897 274.865 84.7175C274.757 85.1241 274.786 85.5538 274.949 85.9426C275.112 86.3314 275.4 86.6585 275.769 86.8753C276.822 87.7535 278.076 88.375 279.424 88.6883C282.32 89.2884 285.242 89.8374 288.164 90.3353C293.877 91.3057 299.62 92.093 305.395 92.6973C309.207 93.0931 313.029 93.4081 316.86 93.6422C324.774 94.1273 332.727 94.2422 340.655 93.9997C344.585 93.872 348.359 93.7443 351.949 92.059C354.565 90.8053 356.801 88.9086 358.435 86.5561C359.974 84.2932 360.985 81.7293 361.397 79.0447C361.809 76.3601 361.612 73.6202 360.82 71.0178V71.0178Z" fill="#E6E6E6"/>
<path d="M288.845 120.684C288.779 119.256 288.533 117.841 288.112 116.471C287.12 113.319 285.206 110.517 282.604 108.41C280.001 106.303 276.824 104.982 273.462 104.61C273.388 104.603 273.314 104.603 273.24 104.61C273.141 104.582 273.04 104.561 272.938 104.546C266.455 103.772 259.876 104.431 253.69 106.474C244.177 109.576 235.831 115.832 231.808 124.77C230.181 122.606 228.038 120.861 225.563 119.686C223.088 118.511 220.356 117.942 217.605 118.028C214.059 118.257 210.671 119.545 207.904 121.718C205.137 123.891 203.126 126.843 202.143 130.171C202.041 130.577 202.074 131.005 202.236 131.392C202.399 131.78 202.682 132.107 203.047 132.328C204.103 133.204 205.355 133.825 206.703 134.141C209.612 134.741 212.521 135.29 215.456 135.788C221.169 136.759 226.908 137.546 232.673 138.15C244.386 139.376 256.172 139.811 267.946 139.453C271.864 139.325 275.651 139.197 279.241 137.512C281.853 136.258 284.084 134.361 285.714 132.009C288.011 128.674 289.112 124.692 288.845 120.684Z" fill="#E6E6E6"/>
<path d="M547.874 550.902H515.981V65.7666C513.832 64.2217 511.67 62.6896 509.482 61.1958C509.05 60.9021 508.617 60.6085 508.185 60.3148C482.96 43.1227 455.674 28.999 426.933 18.2579L420.749 101.376L420.748 101.381H380.955V4.32832C378.361 3.7027 375.766 3.11538 373.146 2.56637V101.381H222.881V6.10352e-05C220.274 0.472467 217.666 0.957645 215.072 1.48112V101.381H173.968L173.968 101.376L167.482 14.2105C139.512 23.6578 112.781 36.2827 87.8421 51.8242C86.9773 52.3605 86.1125 52.8967 85.2477 53.4585C83.505 54.5565 81.7623 55.6801 80.0459 56.8164V550.902H35.142C29.397 550.898 23.7388 552.268 18.6636 554.891C13.5883 557.514 9.25093 561.311 6.03171 565.947C2.81249 570.584 0.809709 575.919 0.199003 581.486C-0.411704 587.052 0.388293 592.679 2.52885 597.874C3.17109 599.445 3.93774 600.965 4.82186 602.42C5.96377 604.317 7.28882 606.104 8.77898 607.756C12.0707 611.412 16.1252 614.34 20.6716 616.346C25.218 618.352 30.1514 619.389 35.1421 619.388H547.874C557.194 619.388 566.132 615.78 572.723 609.358C579.313 602.936 583.016 594.227 583.016 585.145C583.016 576.063 579.313 567.353 572.723 560.931C566.132 554.51 557.194 550.902 547.874 550.902L547.874 550.902ZM412.179 216.773L387.376 550.902H207.341L182.537 216.773H412.179ZM420.185 108.989L414.066 191.412H380.955V108.989H420.185ZM373.146 108.989V191.412H313.354C312.157 189.123 310.333 187.201 308.085 185.858C305.837 184.516 303.251 183.805 300.614 183.804H292.806C290.169 183.805 287.584 184.516 285.336 185.858C283.088 187.201 281.264 189.123 280.067 191.412H222.881V108.989H373.146ZM215.072 191.412H180.65L174.532 108.989H215.072V191.412Z" fill="white"/>
<path d="M3.10254 606.118C14.4854 619.26 26.7972 631.611 39.948 643.08L537.31 644.357C550.461 632.888 562.772 620.537 574.155 607.395L3.10254 606.118Z" fill="#232320"/>
<path d="M254.273 482.514V613.459H348.418V482.514C348.419 481.572 348.111 480.654 347.538 479.896C346.965 479.138 346.157 478.578 345.234 478.3C344.798 478.16 344.342 478.091 343.884 478.096H258.82C258.223 478.095 257.633 478.208 257.081 478.43C256.53 478.651 256.029 478.976 255.607 479.387C255.184 479.797 254.849 480.284 254.62 480.821C254.392 481.357 254.274 481.933 254.273 482.514V482.514ZM291.014 527.507C291.039 524.926 292.108 522.459 293.99 520.642C295.872 518.825 298.414 517.806 301.064 517.806C303.713 517.806 306.255 518.825 308.137 520.642C310.019 522.459 311.089 524.926 311.114 527.507V542.701C311.1 545.289 310.035 547.767 308.152 549.593C306.269 551.419 303.72 552.444 301.064 552.444C298.407 552.444 295.859 551.419 293.975 549.593C292.092 547.767 291.027 545.289 291.014 542.701V527.507Z" fill="#555454"/>
<path d="M253.985 609.271V621.899C253.987 622.553 254.254 623.18 254.727 623.643C255.201 624.107 255.842 624.37 256.514 624.376H346.177C346.849 624.372 347.492 624.11 347.966 623.646C348.44 623.182 348.706 622.554 348.706 621.899V609.271H253.985Z" fill="#232320"/>
<path d="M106.17 285.227V524.315C106.173 527.362 107.416 530.283 109.627 532.438C111.838 534.592 114.836 535.804 117.963 535.806H481.57C484.697 535.804 487.695 534.592 489.906 532.438C492.117 530.283 493.36 527.362 493.363 524.315V285.227C493.355 282.183 492.11 279.265 489.9 277.114C487.689 274.963 484.694 273.752 481.57 273.749H117.963C114.839 273.752 111.844 274.963 109.633 277.114C107.423 279.265 106.178 282.183 106.17 285.227V285.227Z" fill="#232320"/>
<path d="M114.701 288.202V521.366C114.704 522.994 115.369 524.554 116.55 525.705C117.731 526.856 119.333 527.504 121.003 527.507H478.543C480.214 527.504 481.815 526.856 482.997 525.705C484.178 524.554 484.843 522.994 484.846 521.366V288.202C484.846 286.572 484.182 285.008 483.001 283.855C481.819 282.701 480.216 282.051 478.543 282.047H121.003C119.331 282.051 117.728 282.701 116.546 283.855C115.365 285.008 114.701 286.572 114.701 288.202V288.202Z" fill="#1ABA64"/>
<path d="M187.605 627.351C187.969 627.795 188.432 628.154 188.958 628.399C189.485 628.645 190.061 628.771 190.645 628.768H403.358C403.94 628.767 404.514 628.64 405.039 628.396C405.564 628.152 406.027 627.797 406.393 627.356C406.76 626.916 407.021 626.402 407.158 625.851C407.295 625.3 407.304 624.726 407.184 624.171L403.882 608.888C403.746 608.265 403.451 607.685 403.025 607.201C402.6 606.717 402.056 606.345 401.445 606.118C401.003 605.949 400.532 605.862 400.056 605.863H193.934C193.459 605.862 192.987 605.949 192.545 606.118C191.934 606.345 191.391 606.717 190.965 607.201C190.539 607.685 190.245 608.265 190.108 608.888L186.806 624.171C186.688 624.726 186.699 625.299 186.837 625.849C186.976 626.399 187.238 626.912 187.605 627.351Z" fill="#2F2E41"/>
<path d="M193.934 609.055C193.869 609.054 193.805 609.065 193.744 609.087C193.64 609.122 193.547 609.181 193.472 609.26C193.397 609.338 193.343 609.434 193.315 609.538L190.011 624.829C189.994 624.917 189.997 625.009 190.02 625.096C190.043 625.183 190.085 625.264 190.144 625.334L190.159 625.351C190.216 625.424 190.29 625.482 190.374 625.521C190.459 625.56 190.552 625.579 190.645 625.576H403.358C403.451 625.577 403.543 625.557 403.627 625.519C403.711 625.48 403.785 625.423 403.843 625.353C403.905 625.284 403.95 625.203 403.974 625.115C403.999 625.027 404.001 624.934 403.982 624.845L400.677 609.545C400.653 609.445 400.604 609.352 400.534 609.275C400.465 609.197 400.377 609.137 400.279 609.1C400.209 609.071 400.133 609.055 400.057 609.055H193.934Z" fill="white"/>
<path d="M132.498 314.167H467.047C467.395 314.159 467.726 314.02 467.969 313.777C468.213 313.535 468.349 313.21 468.349 312.871C468.349 312.532 468.213 312.206 467.969 311.964C467.726 311.722 467.395 311.582 467.047 311.574H132.498C132.151 311.582 131.82 311.722 131.577 311.964C131.333 312.206 131.197 312.532 131.197 312.871C131.197 313.21 131.333 313.535 131.577 313.777C131.82 314.02 132.151 314.159 132.498 314.167Z" fill="#232320"/>
<path d="M444.274 304.955C448.58 304.955 452.071 301.478 452.071 297.189C452.071 292.899 448.58 289.422 444.274 289.422C439.968 289.422 436.478 292.899 436.478 297.189C436.478 301.478 439.968 304.955 444.274 304.955Z" fill="#232320"/>
<path d="M417.34 304.955C421.646 304.955 425.137 301.478 425.137 297.189C425.137 292.899 421.646 289.422 417.34 289.422C413.034 289.422 409.543 292.899 409.543 297.189C409.543 301.478 413.034 304.955 417.34 304.955Z" fill="#232320"/>
<path d="M390.405 304.955C394.711 304.955 398.202 301.478 398.202 297.189C398.202 292.899 394.711 289.422 390.405 289.422C386.099 289.422 382.608 292.899 382.608 297.189C382.608 301.478 386.099 304.955 390.405 304.955Z" fill="#232320"/>
<path d="M147.289 292.76C147.288 292.943 147.324 293.125 147.396 293.295C147.467 293.465 147.572 293.62 147.705 293.75C147.837 293.881 147.995 293.984 148.169 294.055C148.342 294.126 148.529 294.163 148.717 294.164H167.848C168.226 294.156 168.585 294.003 168.85 293.739C169.114 293.476 169.262 293.122 169.262 292.753C169.262 292.385 169.114 292.031 168.85 291.767C168.585 291.503 168.226 291.351 167.848 291.342H148.717C148.335 291.347 147.971 291.499 147.703 291.764C147.436 292.03 147.287 292.387 147.289 292.76V292.76Z" fill="#232320"/>
<path d="M147.289 298.058C147.288 298.242 147.324 298.424 147.396 298.594C147.467 298.764 147.572 298.918 147.705 299.049C147.837 299.179 147.995 299.283 148.169 299.354C148.342 299.425 148.529 299.462 148.717 299.463H167.848C168.226 299.455 168.586 299.302 168.851 299.039C169.116 298.775 169.264 298.421 169.264 298.052C169.264 297.683 169.116 297.329 168.851 297.065C168.586 296.801 168.226 296.649 167.848 296.641H148.717C148.335 296.646 147.971 296.797 147.703 297.063C147.436 297.328 147.287 297.686 147.289 298.058V298.058Z" fill="#232320"/>
<path d="M147.289 303.344C147.287 303.716 147.436 304.074 147.703 304.34C147.971 304.605 148.335 304.757 148.717 304.761H167.848C168.226 304.753 168.585 304.6 168.85 304.337C169.114 304.073 169.262 303.719 169.262 303.351C169.262 302.982 169.114 302.628 168.85 302.364C168.585 302.101 168.226 301.948 167.848 301.94H148.717C148.529 301.94 148.342 301.977 148.169 302.048C147.995 302.12 147.837 302.223 147.705 302.354C147.572 302.484 147.467 302.639 147.396 302.809C147.324 302.979 147.288 303.161 147.289 303.344Z" fill="#232320"/>
<path d="M417.2 353.739H182.346C179.261 353.743 176.303 354.939 174.121 357.064C171.94 359.19 170.713 362.072 170.709 365.079V476.46C170.712 479.467 171.94 482.349 174.121 484.475C176.303 486.601 179.261 487.797 182.346 487.8H417.2C420.285 487.797 423.243 486.601 425.425 484.475C427.607 482.349 428.834 479.467 428.837 476.46V365.079C428.833 362.072 427.606 359.19 425.425 357.064C423.243 354.939 420.285 353.743 417.2 353.739ZM426.216 365.079V397.575H343.668V356.293H417.2C419.59 356.295 421.882 357.222 423.573 358.869C425.263 360.516 426.214 362.749 426.217 365.079H426.216ZM258.499 441.411V400.128H341.047V441.411H258.499ZM341.047 443.965V485.247H258.499V443.965H341.047ZM255.878 441.411H173.33V400.128H255.878V441.411ZM258.499 397.575V356.293H341.047V397.575H258.499ZM343.668 400.128H426.216V441.411H343.668V400.128ZM182.346 356.293H255.878V397.575H173.33V365.079C173.332 362.749 174.283 360.516 175.973 358.869C177.664 357.222 179.956 356.295 182.346 356.293V356.293ZM173.33 476.46V443.965H255.878V485.247H182.346C179.956 485.244 177.664 484.318 175.973 482.67C174.283 481.023 173.332 478.79 173.33 476.46V476.46ZM417.2 485.247H343.668V443.965H426.217V476.46C426.214 478.79 425.263 481.023 423.573 482.67C421.882 484.318 419.591 485.244 417.2 485.247H417.2Z" fill="#232320"/>
<path d="M287.836 382.018C285.752 378.659 283.283 375.073 279.415 373.976C274.936 372.706 270.335 375.229 266.432 377.719C254.761 385.165 243.521 393.234 232.765 401.89L232.776 402.02L257.9 400.332C263.95 399.925 270.209 399.463 275.556 396.674C277.585 395.615 279.563 394.202 281.862 394.103C284.718 393.981 287.209 395.925 289.166 397.956C300.745 409.97 304.095 428.342 317.085 438.897C308.894 419.214 299.114 400.194 287.836 382.018V382.018Z" fill="white"/>
<path d="M359.007 483.918C357.727 482.343 357.204 481.974 355.941 480.384C345.657 467.424 335.991 454.026 326.943 440.19C320.797 430.793 314.956 421.216 309.42 411.458C306.785 406.82 304.221 402.144 301.73 397.433C299.797 393.779 297.907 390.104 296.06 386.407C295.532 385.351 295.019 384.29 294.508 383.227C293.305 380.727 292.124 378.214 290.856 375.748C289.545 372.787 287.539 370.168 284.999 368.102C283.792 367.207 282.348 366.665 280.836 366.541C278.707 366.553 276.622 367.134 274.81 368.223C261.09 375.251 248.283 383.856 236.665 393.854C225.029 403.812 214.628 415.062 205.674 427.375C205.4 427.756 204.753 427.392 205.029 427.009C206.118 425.509 207.228 424.025 208.36 422.557C222.433 404.318 239.69 388.634 259.34 376.221C262.646 374.134 266.014 372.144 269.444 370.252C271.173 369.298 272.909 368.356 274.675 367.473C276.368 366.506 278.266 365.933 280.223 365.798C286.955 365.696 290.44 373.124 292.834 378.122C293.586 379.695 294.348 381.263 295.118 382.827C298.03 388.762 301.055 394.643 304.191 400.469C306.127 404.067 308.105 407.643 310.125 411.199C316.413 422.27 323.096 433.118 330.174 443.741C339.551 457.813 348.853 470.244 359.536 483.404C359.83 483.768 359.304 484.287 359.007 483.918Z" fill="white"/>
<path d="M236 390.187C235.609 389.762 235.22 389.337 234.826 388.912C231.722 385.567 228.392 382.261 224.129 380.343C222.097 379.4 219.878 378.899 217.627 378.875C215.304 378.937 213.014 379.423 210.876 380.309C209.86 380.705 208.866 381.154 207.887 381.632C206.768 382.181 205.669 382.766 204.576 383.356C202.523 384.463 200.497 385.618 198.497 386.822C194.519 389.218 190.665 391.797 186.936 394.559C185.002 395.991 183.109 397.47 181.256 398.996C179.532 400.414 177.843 401.869 176.189 403.363C175.835 403.681 175.307 403.166 175.66 402.848C176.096 402.453 176.537 402.059 176.978 401.671C178.224 400.574 179.489 399.498 180.775 398.442C183.119 396.515 185.524 394.662 187.989 392.884C191.823 390.116 195.789 387.537 199.887 385.145C201.935 383.951 204.011 382.806 206.115 381.712C206.751 381.382 207.393 381.059 208.044 380.754C209.519 380.028 211.052 379.42 212.627 378.935C214.859 378.232 217.221 378.006 219.55 378.273C221.8 378.592 223.967 379.322 225.938 380.426C230.123 382.705 233.369 386.23 236.528 389.67C236.847 390.019 236.321 390.536 236 390.187Z" fill="white"/>
<path d="M321.753 424.85L331.781 421.276L336.761 419.501C338.369 418.87 340.01 418.32 341.677 417.852C343.133 417.446 344.68 417.465 346.126 417.907C347.415 418.372 348.596 419.085 349.597 420.003C350.619 420.921 351.571 421.911 352.443 422.965C353.527 424.235 354.595 425.517 355.668 426.796C360.096 432.073 364.495 437.372 368.865 442.695C373.235 448.017 377.576 453.362 381.887 458.73C386.209 464.11 390.501 469.514 394.764 474.939C395.286 475.604 395.808 476.269 396.329 476.934C396.617 477.302 397.267 476.939 396.974 476.567C392.68 471.086 388.357 465.629 384.003 460.193C379.638 454.745 375.243 449.319 370.818 443.917C366.394 438.515 361.939 433.137 357.454 427.781C356.337 426.447 355.218 425.115 354.097 423.783C353.151 422.66 352.217 421.525 351.179 420.48C350.296 419.443 349.212 418.586 347.989 417.958C346.766 417.33 345.427 416.944 344.05 416.82C342.383 416.877 340.74 417.229 339.201 417.859C337.525 418.45 335.852 419.052 334.178 419.649L324.079 423.248L321.554 424.148C321.106 424.308 321.3 425.012 321.753 424.85V424.85Z" fill="white"/>
<path d="M222.81 384.552C220.233 383.315 217.364 382.768 214.499 382.968C211.633 383.168 208.874 384.107 206.503 385.689C215.436 387.19 224.271 389.2 232.964 391.706C229.354 389.645 226.531 386.416 222.81 384.552Z" fill="white"/>
<path d="M206.453 385.68L205.472 386.457C205.804 386.185 206.149 385.93 206.503 385.689L206.453 385.68Z" fill="white"/>
<path d="M349.219 424.886C348.341 423.625 347.118 422.63 345.688 422.013L344.309 422.066C354.803 440.136 368.977 455.924 385.959 468.464L349.219 424.886Z" fill="white"/>
<path d="M342.769 405.102C347.154 405.102 350.708 401.638 350.708 397.366C350.708 393.094 347.154 389.63 342.769 389.63C338.385 389.63 334.831 393.094 334.831 397.366C334.831 401.638 338.385 405.102 342.769 405.102Z" fill="white"/>
<path d="M457.977 483.332C459.54 483.329 461.038 482.723 462.144 481.646C463.249 480.569 463.871 479.109 463.873 477.586V358.846C463.873 357.323 463.252 355.861 462.146 354.784C461.04 353.706 459.541 353.101 457.977 353.101C456.413 353.101 454.913 353.706 453.808 354.784C452.702 355.861 452.081 357.323 452.081 358.846V477.586C452.083 479.109 452.705 480.569 453.81 481.646C454.915 482.723 456.414 483.329 457.977 483.332V483.332Z" fill="#232320"/>
<path d="M457.977 483.332C459.54 483.329 461.038 482.723 462.144 481.646C463.249 480.569 463.871 479.109 463.873 477.586V452.408C463.194 451.506 462.306 450.772 461.282 450.266C460.258 449.761 459.125 449.497 457.977 449.497C456.829 449.497 455.696 449.761 454.672 450.266C453.648 450.772 452.76 451.506 452.081 452.408V477.586C452.083 479.109 452.705 480.569 453.81 481.646C454.915 482.723 456.414 483.329 457.977 483.332V483.332Z" fill="#2F2E41"/>
<path d="M457.977 459.073C459.658 459.07 461.27 458.419 462.458 457.26C463.647 456.102 464.316 454.532 464.318 452.894V425.816C463.588 424.845 462.633 424.056 461.531 423.512C460.43 422.968 459.212 422.685 457.977 422.685C456.742 422.685 455.524 422.968 454.423 423.512C453.321 424.056 452.366 424.845 451.636 425.816V452.894C451.638 454.532 452.307 456.102 453.496 457.26C454.685 458.419 456.296 459.07 457.977 459.073V459.073Z" fill="#1ABA64"/>
<path d="M457.977 454.149C459.203 454.147 460.378 453.672 461.245 452.827C462.112 451.982 462.6 450.837 462.602 449.642V429.892C462.069 429.184 461.373 428.609 460.569 428.212C459.766 427.815 458.878 427.609 457.977 427.609C457.076 427.609 456.188 427.815 455.384 428.212C454.581 428.609 453.884 429.184 453.352 429.892V449.642C453.353 450.837 453.841 451.982 454.708 452.827C455.575 453.672 456.751 454.147 457.977 454.149V454.149Z" fill="#232320"/>
<path d="M276.077 616.727C275.042 615.823 274.417 614.557 274.339 613.205C274.261 611.853 274.737 610.526 275.662 609.515L327.177 553.348C327.636 552.848 328.191 552.441 328.811 552.15C329.432 551.859 330.104 551.69 330.792 551.652C331.479 551.615 332.167 551.709 332.816 551.931C333.466 552.152 334.065 552.497 334.578 552.943C335.091 553.39 335.509 553.931 335.808 554.536C336.106 555.14 336.28 555.796 336.318 556.465C336.357 557.135 336.26 557.805 336.032 558.438C335.805 559.071 335.452 559.655 334.993 560.155L283.478 616.322C282.551 617.331 281.251 617.94 279.864 618.016C278.476 618.091 277.114 617.628 276.077 616.727Z" fill="#232320"/>
<path d="M703.432 709.204C703.432 718.512 701.178 725.636 701.453 731.331C685.999 737.904 670.108 743.457 653.889 747.954C652.055 748.465 650.221 748.95 648.373 749.435C638.375 719.61 628.365 692.3 624.421 689.401C615.393 682.801 610.872 710.111 610.872 703.51C610.872 696.909 615.393 696.909 604.111 688.112C592.817 679.315 599.591 639.722 599.591 639.722L583.789 600.13L601.464 536.98L624.421 454.948H646.997C646.997 454.948 647.665 455.42 648.779 456.301C654.427 460.795 671.46 475.81 669.574 492.344C669.01 497.273 670.268 511.598 672.456 530.673C679.113 588.268 694.404 650.881 694.404 667.403C694.404 689.401 703.432 696.002 703.432 709.204Z" fill="#E6E6E6"/>
<path d="M684.501 530.457C684.474 530.393 684.461 530.342 684.435 530.291C683.929 528.963 683.338 527.667 682.666 526.41C678.853 519.426 682.889 508.701 678.591 496.853C671.647 477.65 663.182 466.325 650.774 456.175C650.407 455.868 650.04 455.575 649.66 455.268L649.647 455.255C641.366 448.629 631.381 442.437 618.986 434.725C616.404 433.116 613.705 431.444 610.901 429.682C607.285 427.422 607.481 419.889 607.691 411.922C607.927 403.074 608.176 393.906 603.721 388.187L603.433 387.816L602.974 387.701C587.699 384.758 572.121 383.587 556.563 384.216H556.55C549.945 384.455 543.385 385.392 536.988 387.012C536.516 387.14 536.044 387.267 535.586 387.421C535.232 387.51 534.878 387.625 534.524 387.74L534.236 387.842L534.013 388.046C529.702 392.247 528.706 399.78 528.235 407.632V407.645C528.143 409.075 528.064 410.505 527.999 411.935C527.632 419.57 527.291 426.783 524.409 429.912C517.979 437.01 510.207 442.835 501.518 447.071C487.982 453.583 477.277 453.379 477.12 453.379L475.875 453.34L475.757 454.54C466.769 471.228 467.109 514.281 466.834 560.385C466.821 562.951 466.804 565.53 466.782 568.122C466.625 589.597 466.205 611.443 464.554 631.348C463.834 639.902 462.903 648.086 461.659 655.734C455.605 692.978 428.181 662.054 415.064 686.836C415.495 689.273 416.221 691.652 417.226 693.922C418.733 694.791 420.279 695.633 421.813 696.476C428.613 700.166 435.54 703.609 442.594 706.805C442.987 706.984 443.38 707.163 443.773 707.329C456.711 713.162 470.047 718.119 483.685 722.165C486.344 722.956 489.004 723.71 491.691 724.425C515.451 730.816 539.917 734.387 564.556 735.06C564.656 735.049 564.757 735.045 564.858 735.047C593.997 734.262 622.946 730.196 651.127 722.931C651.52 722.829 651.913 722.726 652.307 722.624C654.154 722.139 655.988 721.654 657.823 721.143C674.042 716.646 689.932 711.093 705.387 704.52C705.403 705.08 705.459 705.639 705.557 706.192C705.57 706.373 705.597 706.552 705.636 706.728C705.662 706.524 705.688 706.32 705.701 706.116C705.78 705.516 705.845 704.903 705.911 704.29C713.93 628.092 697.276 563.398 684.501 530.457Z" fill="#2E4136"/>
<path d="M504.422 343.707C512.419 357.957 525.158 369.128 540.541 375.38C555.924 381.633 573.034 382.594 589.053 378.105C605.071 373.617 619.043 363.946 628.668 350.687C638.293 337.427 642.997 321.368 642.004 305.156C641.012 288.944 634.383 273.544 623.209 261.493C612.034 249.442 596.982 241.458 580.529 238.857C564.077 236.256 547.205 239.192 532.694 247.182C518.183 255.172 506.897 267.739 500.694 282.814C500.358 283.632 500.056 284.45 499.754 285.301C496.248 294.804 494.851 304.924 495.655 314.992C496.46 325.06 499.448 334.847 504.422 343.707V343.707Z" fill="#A0616A"/>
<path d="M493.877 285.301C497.034 276.695 495.657 281.178 498.847 272.605C496.765 280.196 500.056 284.45 499.754 285.301H587.095V235.827C561.507 225.945 536.49 217.536 521.379 235.827C507.914 235.827 495 241.04 485.478 250.318C475.957 259.596 470.607 272.179 470.606 285.301H493.877Z" fill="#100D0D"/>
<path d="M524.838 422.826C524.906 421.91 525.006 420.961 525.141 420.045C526.081 413.305 528.431 406.826 530.816 400.413C533.334 393.508 535.886 386.571 538.438 379.667C535.152 392.2 536.154 405.435 541.293 417.362C556.034 406.171 546.732 380.584 566.007 380.584C612.348 380.584 660.031 343.969 660.031 298.781C660.031 253.627 640.152 219.859 593.812 219.859C547.438 219.859 509.828 240.538 508.921 285.693C566.007 298.782 514.059 418.245 524.838 422.826Z" fill="#100D0D"/>
<path d="M654.241 291.861C683.914 291.861 707.969 268.421 707.969 239.507C707.969 210.593 683.914 187.154 654.241 187.154C624.568 187.154 600.513 210.593 600.513 239.507C600.513 268.421 624.568 291.861 654.241 291.861Z" fill="#100D0D"/>
<path d="M738 539.752C737.817 542.446 737.655 545.315 737.515 548.358C734.737 605.672 737.135 682.827 718.411 724.693C714.218 726.927 709.982 729.063 705.701 731.102C705.531 731.179 705.373 731.255 705.229 731.332C704.076 731.881 702.923 732.417 701.77 732.928C701.728 732.963 701.679 732.989 701.626 733.004C688.964 738.834 675.915 743.829 662.566 747.955C660.928 748.466 659.277 748.951 657.626 749.436C657.273 749.539 656.919 749.641 656.565 749.743C631.417 756.99 605.418 761.062 579.205 761.86C577.843 761.898 576.506 761.923 575.209 761.949C574.75 761.962 574.305 761.974 573.859 761.974C572.392 761.987 570.937 762 569.47 762C566.509 762 563.561 761.957 560.625 761.872C535.986 761.199 511.52 757.628 487.76 751.237C485.074 750.522 482.414 749.769 479.754 748.977C466.116 744.931 452.78 739.974 439.842 734.141C439.449 733.975 439.056 733.796 438.663 733.617C431.614 730.425 424.687 726.982 417.882 723.288C416.349 722.446 414.803 721.603 413.296 720.735C412.29 718.464 411.565 716.086 411.134 713.649C408.159 699.719 405.775 709.116 404.071 680.133C402.512 653.564 401.516 626.917 401.149 611.686C401.031 607.625 400.992 604.37 400.979 602.148C402.368 592.47 424.695 581.49 457.256 571.059C460.335 570.076 463.519 569.092 466.782 568.122C475.587 565.479 484.995 562.887 494.822 560.385C519.849 554.001 547.64 548.141 575.222 543.302C588.836 540.927 602.398 538.795 615.566 536.982C638.666 533.79 660.522 531.581 679.22 530.674C681.015 530.585 682.771 530.508 684.501 530.457C686.361 530.381 688.182 530.33 689.965 530.291C716.904 529.717 735.301 532.449 738 539.752Z" fill="#A06F1F"/>
<path opacity="0.2" d="M738 539.752C737.817 542.446 737.655 545.315 737.515 548.358C717.101 526.933 497.181 622.64 404.071 680.133C402.512 653.564 401.516 626.917 401.149 611.686C401.031 607.625 400.992 604.37 400.979 602.148C402.368 592.47 424.695 581.49 457.256 571.059C460.336 570.076 463.519 569.093 466.782 568.122C475.587 565.479 484.995 562.887 494.822 560.385C519.849 554.001 547.64 548.141 575.222 543.302C588.836 540.927 602.398 538.795 615.566 536.982C638.667 533.79 660.522 531.581 679.22 530.674C681.015 530.585 682.771 530.508 684.501 530.457C686.361 530.381 688.182 530.33 689.965 530.291C716.904 529.717 735.301 532.449 738 539.752Z" fill="black"/>
<path d="M290.755 606.161C292.817 608.694 295.425 610.756 298.393 612.202C301.362 613.647 304.62 614.441 307.937 614.526C311.254 614.612 314.551 613.988 317.594 612.699C320.637 611.409 323.353 609.485 325.55 607.061L400.169 636.924L392.117 596.838L322.492 574.626C318.07 571.299 312.549 569.668 306.975 570.042C301.401 570.416 296.161 572.77 292.249 576.657C288.337 580.544 286.024 585.695 285.749 591.132C285.474 596.57 287.255 601.917 290.755 606.161V606.161Z" fill="#A0616A"/>
<path d="M538.97 439.235L538.561 439.193L495.048 442.271C489.523 442.662 484.147 444.193 479.277 446.763C474.406 449.333 470.152 452.883 466.797 457.178C465.237 459.167 463.887 461.305 462.767 463.558L462.756 463.565C459.005 471.044 457.875 479.515 459.538 487.68L480.024 588.166L430.733 583.802L412.74 586.799L391.507 578.451L347.937 579.174L346.928 582.427L337.788 611.951L337.07 614.271L403.601 655.123L422.89 649.405L431.976 656.207L432.413 656.218L450.432 656.565L527.278 658.033L548.283 621.771L551.565 616.086C575.961 562.833 581.981 525.657 580.071 500.046C579.07 486.514 575.859 476.228 571.973 468.475C559.954 444.52 539.816 439.437 538.97 439.235Z" fill="#2E4136"/>
<path d="M661.036 285.987C650.847 283.756 641.401 279.054 633.574 272.317C625.746 265.58 619.791 257.027 616.259 247.451C613.106 238.542 611.917 228.759 606.626 220.83C614.686 210.044 621.15 198.206 625.828 185.666C627.638 180.811 631.878 171.998 624.69 169.327C618.964 167.2 612.458 172.335 609.064 176.387C606.485 179.458 604.635 183.047 603.648 186.896C602.477 181.859 601.306 176.822 600.136 171.785C599.987 171.302 599.653 170.893 599.202 170.644C598.752 170.395 598.22 170.324 597.718 170.447C588.125 172.041 581.167 180.697 579.958 189.814C579.299 194.508 580.394 199.276 583.045 203.248C586.127 207.817 590.64 211.092 594.935 214.496C599.502 218.117 603.373 221.973 605.829 227.268C608.381 232.771 609.53 238.793 611.223 244.571C614.436 255.669 620.662 265.717 629.245 273.656C637.828 281.595 648.45 287.131 659.991 289.681C662.457 290.206 663.51 286.514 661.036 285.987ZM606.859 194.423C606.551 189.612 607.856 184.833 610.577 180.807C611.939 178.765 613.646 176.964 615.626 175.478C617.503 174.081 620.271 172.23 622.754 172.743C625.975 173.409 624.679 176.912 623.995 179.024C623.093 181.811 622.1 184.568 621.018 187.296C618.911 192.593 616.465 197.756 613.694 202.754C612.256 205.356 610.718 207.903 609.113 210.408C608.006 205.646 606.899 200.885 605.793 196.123C606.141 195.999 606.436 195.763 606.63 195.454C606.824 195.146 606.905 194.782 606.859 194.423V194.423ZM583.903 195.185C583.26 190.834 584.193 186.401 586.54 182.647C588.888 178.894 592.504 176.054 596.767 174.616C599.887 188.039 603.006 201.463 606.126 214.886C605.483 215.811 604.818 216.723 604.152 217.634C603.978 217.438 603.819 217.236 603.637 217.044C597.093 210.104 585.682 205.373 583.903 195.185V195.185Z" fill="#2E4136"/>
</g>
<defs>
<clipPath id="clip0_60_28">
<rect width="738" height="762" fill="white"/>
</clipPath>
</defs>
</svg>
